<svg
  xmlns="http://www.w3.org/2000/svg"
  viewBox="0 0 24 24"
  role="img"
  aria-label="Microsoft Teams"
>
  <path
    fill="#6264A7"
    d="M19.5 8.25h-3.25V6.5a3.25 3.25 0 1 0-6.5 0v1.75H6.5A2.5 2.5 0 0 0 4 10.75v6.5a2.5 2.5 0 0 0 2.5 2.5h8a2.5 2.5 0 0 0 2.5-2.5V15h2.5A2.5 2.5 0 0 0 22 12.5v-1.75a2.5 2.5 0 0 0-2.5-2.5Z"
  />
  <path
    fill="#FFFFFF"
    d="M7 10h7v2H11v6H9v-6H7v-2Z"
  />
  <circle
    cx="13"
    cy="4.75"
    r="2.25"
    fill="#7B83EB"
  />
  <circle
    cx="19"
    cy="6.25"
    r="1.75"
    fill="#5059C9"
  />
</svg>
